<svg width="1348" height="1294" viewBox="0 0 1348 1294" fill="none" xmlns="http://www.w3.org/2000/svg">
<path d="M1258 0C1307.71 0 1348 40.2944 1348 90C1348 139.706 1307.71 180 1258 180H710L709.226 180.01C693.015 180.421 680 193.69 680 210V719L680.01 719.774C680.421 735.985 693.69 749 710 749H1258C1307.71 749 1348 789.294 1348 839C1348 888.706 1307.71 929 1258 929H620C553.474 929 500 874.957 500 808.936V120C500 53.5022 554.007 0 620.058 0H1258Z" fill="#A8B2B8"/>
<path d="M480 545H210L209.226 545.01C193.015 545.421 180 558.69 180 575V1084L180.01 1084.77C180.421 1100.99 193.69 1114 210 1114H758C807.706 1114 848 1154.29 848 1204C848 1253.71 807.706 1294 758 1294H120C53.4735 1294 0.000161492 1239.96 0 1173.94V485C0 418.502 54.0074 365 120.058 365H480V545Z" fill="#2CB5C0"/>
</svg>
